<svg version="1.0" xmlns="http://www.w3.org/2000/svg" width="1800" height="284" viewBox="0 0 1350 213">
    <path d="M167.5 16.2c-.3.7-.4 40.4-.3 88.3l.3 87 10.9.5c5.9.3 11.2.3 11.6 0 .5-.3 1-16.3 1.3-35.5.4-36.4.6-38.6 5.1-47.3 2.4-4.6 9.8-11.3 14.7-13.3 2.9-1.2 7.2-1.8 12.7-1.8 6.9-.1 9.1.3 13.2 2.4 2.7 1.4 6.1 4.1 7.7 6.1 5.6 7.5 5.7 7.8 6.3 49.9l.5 39 10.9.5c8.7.4 11.3.2 12.4-.9 1.2-1.2 1.3-8 .9-43.5-.5-45.4-.4-44.8-6.3-56.6-2.5-4.9-11.4-13.5-16-15.5-18.6-8.1-42.8-4.5-56 8.2-2.4 2.4-4.9 4.1-5.5 3.8-.6-.4-.9-13.1-.9-35.6.1-19.2-.1-35.3-.5-35.9-.9-1.5-22.4-1.3-23 .2zM546.5 16.1c-9.8.9-14.9 2.4-24 6.9-7 3.5-17.6 12.9-19.5 17.3-.6 1.2-1.4 2.9-1.9 3.7-6.2 10.3-6.3 30.2-.3 43.1 5.1 10.8 18.6 21.5 31.7 25 4.8 1.3 11.6 3 17.5 4.4 3 .7 7.8 1.9 10.5 2.5 2.8.7 6.6 1.6 8.5 1.9 6.9 1.4 15.2 6.4 18.5 10.9 2.8 4.1 3 5 3 13.2s-.2 9.1-3 13.2c-10.8 15.3-40.8 18.6-57.5 6.3-5-3.7-9-9.9-9-14 0-4.8-2.1-5.6-14.9-5.3l-11.6.3-.3 3.2c-.3 3.3 2.7 14.3 5 18.5 8.1 14.4 21 22.9 40.6 26.8 11.2 2.1 34 .6 42.7-3 10.1-4.1 16.1-8 21.5-13.7 9.6-10.3 13-19 13-33.8 0-11.4-1.5-17-6.9-25.4-7-10.8-18.2-17.2-39.6-22.4-3.3-.8-8.2-2.1-11-2.7-2.7-.7-7.1-1.6-9.7-2.1-2.6-.4-5.6-1.2-6.7-1.8-1.1-.6-2.7-1.1-3.6-1.1-.9 0-4.1-1.6-7-3.6-12.3-8.1-13.9-25.8-3.2-36.1 5.7-5.6 10.7-7.8 20.2-9.2 11.3-1.6 21.4.4 29.1 5.9 3.2 2.3 8.4 10.5 8.4 13.3 0 1.4.8 3.4 1.8 4.6 1.6 2 2.5 2.2 13.2 1.9l11.5-.3.3-3.7c.3-3.8-2.4-13.9-5.3-19.6-1-1.9-4.3-6.2-7.5-9.5-11.9-12.8-30.3-18-54.5-15.6zM777.4 17.8c-7.5 4.2-10.4 8.4-10.4 15 0 5.2 4.7 11.7 10.3 14.3 5.3 2.3 5.8 2.3 11.5-.1 13.3-5.8 13.4-23.2.1-29.2-5-2.2-7.5-2.2-11.5 0zM18.2 30.2l.3 11.3 25 .5c13.8.3 25.6.9 26.3 1.3.9.6 1.2 16.7 1.2 74.8 0 58.4.3 73.9 1.3 73.9 12.6.5 22.1 0 22.8-1.2.5-.7.9-34.2.9-74.4 0-65.8.2-73.2 1.6-73.8.9-.3 12.3-.6 25.4-.6 28.2 0 26.2 1 25.8-13.3l-.3-9.2-65.3-.3-65.3-.2.3 11.2zM343.5 72.5c-8.1 1.7-12 3.3-18.3 7.3-11.3 7.3-19.6 18.6-24.6 33.7-2.3 7-2.3 31.9 0 39 8.8 27.3 29 42.4 56.9 42.5 11.7 0 27.3-3.4 30.7-6.8.7-.7 1.6-1.2 2.1-1.2 1.7 0 9.9-7 13.1-11.2 6.3-8.3 10.4-18.1 8.5-20.4-2.3-2.8-22.9-1.4-22.9 1.5 0 2.2-5.6 9.3-9.3 11.7-4.7 3.1-15.6 6.4-21.2 6.4-4.3 0-15.4-2.9-19.5-5.1-7.8-4.3-15-16-15.8-25.6l-.4-5.3 44.8-.2 44.9-.3.3-8.5c.4-10.8-2.5-23.5-6.9-31-.5-.8-1.4-2.6-1.9-3.9-2.1-4.8-13.4-14.8-20.5-18.1-11.8-5.5-27.1-7.2-40-4.5zm23.8 21c9.8 3 17.3 11 19.8 21.3 1.1 4.6 1.1 5.5-.1 6.2-.8.6-15.3 1-32.3 1-34.6 0-33.4.3-30.2-7.3 5.3-12.9 10.2-17.7 22-21.6 4.5-1.4 15.4-1.3 20.8.4zM679.5 72.5c-11.9 2.6-20.6 7.4-29.3 16.5-6.7 6.9-9.3 11.5-13.3 23.2-2.8 8.4-2.8 34.3.1 42.7 3 9 4.1 11.1 9.3 18.2 10.7 14.5 26.2 21.9 46.2 21.9 8.5 0 21.1-2.2 22.8-3.9.6-.6 1.7-1.1 2.4-1.1 1.5 0 10.9-5.6 14.1-8.4 3.4-3 10.4-12.5 12.3-16.6 2.3-4.9 4.1-11.9 3.4-13-.3-.6-5.6-1-11.9-1-11.2 0-13.6.7-13.6 3.7 0 3.7-7.3 11.4-14 14.8-4.3 2.2-6.3 2.5-14.8 2.5-11.9 0-16.8-1.8-23.4-8.4-7.4-7.6-10.8-17.1-10.8-30.5 0-13.2 3.8-23.2 11.6-30.8 6.7-6.4 12.1-8.4 23-8.4 8.6-.1 9.7.2 15.3 3.1 4.5 2.4 7 4.6 9.5 8.4 1.8 2.8 3.5 6 3.7 7.1.4 1.8 1.3 2 12.3 2.3 6.6.1 12.3-.1 12.8-.6 2.4-2.4-5.3-19.9-11.5-26.3-8.1-8.4-19.6-14.1-32-15.8-9.7-1.4-16.4-1.2-24.2.4zM865 72.5c-8.4 1.6-12.3 3.2-18.8 7.3-5.7 3.7-14.8 12.5-16.3 15.7-.5 1.1-1.8 3.5-2.9 5.4-5.4 8.7-6.5 14.5-6.5 32.6 0 14.3.3 17.8 1.8 21.5 4.3 10.2 8.4 17.2 13.1 22.2 11.5 12 25.2 17.7 43.1 17.8 27.7.1 48-13 54-34.8 1.1-3.8 1-4.4-.6-5.2-2.1-1.2-17.9-1.3-19.5-.2-.6.4-2.3 2.7-3.9 5.2-4.7 7.7-8.3 10.2-18.4 13.1-8.4 2.4-12.9 2.4-21.5-.1-6.4-1.8-11.7-4.9-15.9-9.2-3.5-3.6-7.5-13.1-7.9-18.8l-.3-5.5 44.5-.5c24.5-.3 44.6-.7 44.8-.8.1-.1.2-3 .2-6.5 0-7.4-2.3-21.8-4.2-26.7-9.5-25-35.8-38.2-64.8-32.5zm23.2 20.9c8.1 2.5 13.9 7.3 17.6 14.5 2.6 5.1 3.5 11.6 1.8 13-.9.8-10.2 1.1-31.7.9l-30.4-.3-.3-3c-.5-3.8 4.8-14.3 9.1-18.2 3.3-2.9 8.1-5.5 13.2-7.2 4.5-1.4 15.4-1.3 20.7.3zM1010 72.4c-8 1.8-16.4 6.3-21.6 11.5-5 5.1-5.8 4.9-6.8-2.3-1.1-6.8-1.3-6.9-12.1-6.9-7.2 0-9.9.3-10.6 1.4-.5.8-.9 26.6-.9 57.6 0 45.1.3 56.4 1.3 57.5 1 1 4 1.2 12.3.8l10.9-.5.5-36.5c.6-39.1.7-40.2 6.1-48.5 5.4-8.3 13.9-12.5 25.5-12.5 10.7 0 19.3 4.3 23 11.4 3.8 7.4 4.3 13 4.4 49.3 0 27.7.3 35.4 1.3 36.5 1 1 4 1.2 12.3.8l10.9-.5.3-39.5c.3-43.8-.1-47.3-6.2-59.9-3.4-6.9-10.5-14.2-16.5-16.8-9.2-3.9-23.7-5.2-34.1-2.9zM1135 72.5c-8.4 1.7-12.3 3.2-19 7.5-14.8 9.4-23.8 24.8-26 44.5-2.3 21.3 3.6 42 15.4 53.9 4.7 4.7 14.7 11.6 16.8 11.6.8 0 1.9.5 2.5 1.1 3.4 3.4 25.8 5 37.3 2.5 7.8-1.6 10.5-2.8 18.8-7.9 10.8-6.8 20.6-20.6 21.4-30.3l.3-3.9-11.7-.3-11.7-.3-2.6 5c-3.2 6.5-8.3 11.5-14.1 14-6.5 2.9-22.2 3-28.6.1-13.8-6.1-21.8-24.5-19-44.2 1.3-9.2 2.7-13.1 7.5-19.5 3.9-5.4 6.8-7.6 13.1-10.5 5.6-2.6 20.8-2.5 26.8.2 5.6 2.5 11.8 8.6 14.3 14.4l2 4.6h11.7c6.4 0 11.9-.3 12.2-.8.2-.4 0-2.5-.4-4.7-4.1-19.5-20.3-33.8-42-37.2-10.3-1.5-16.4-1.5-25 .2zM1264 72.5c-7.4 1.5-13.5 3.6-15.2 5.3-.7.7-1.7 1.2-2.4 1.2-1.6 0-16 13.5-17.6 16.5-8.6 16-9.3 18.8-9.3 37.5 0 14.5.3 17.2 2.2 22.7 2.9 8 6.8 14.9 11.2 19.8 3.9 4.5 12.4 11.5 13.8 11.5.5 0 1.4.5 2.1 1.2 3.3 3.3 17.7 6.7 28.7 6.8 27.7.1 48.1-13.1 54-34.8 1.6-5.6.5-6.2-11.3-6.2h-9l-2.5 4.2c-3 5.1-7.3 9.8-10.6 11.7-3.9 2.1-15.2 5.1-19.6 5.1-9.1 0-20.2-4.7-26.8-11.3-3.5-3.5-7.5-13-7.9-18.7l-.3-5.5 44.2-.5c24.3-.3 44.5-.8 44.8-1.2 1.9-1.8-.9-25.6-3.7-32.8-3-7.7-6.4-12.8-12.3-18.6-12.6-12.7-32.4-17.9-52.5-13.9zm23.2 20.9c8.1 2.5 13.9 7.3 17.6 14.5 2.6 5.1 3.5 11.6 1.8 13-.9.8-10.2 1.1-31.7.9l-30.4-.3-.3-3.2c-.2-2.1.8-5.2 3.1-9.5 3.9-7.2 10.6-13 17.7-15.2 6-1.8 16.4-1.9 22.2-.2zM772.9 75.2c-1.9.7-1.9 2.1-1.7 58.5l.3 57.8 11 .3c9.5.2 11.1 0 12.2-1.5 1-1.3 1.3-14.1 1.3-57.4 0-47.9-.2-55.8-1.5-56.9-1.6-1.3-18.4-2-21.6-.8z"/>
</svg>
