<?xml version="1.0" standalone="no"?>
<!DOCTYPE svg PUBLIC "-//W3C//DTD SVG 20010904//EN"
 "http://www.w3.org/TR/2001/REC-SVG-20010904/DTD/svg10.dtd">
<svg version="1.0" xmlns="http://www.w3.org/2000/svg"
 width="1350.000000pt" height="213.000000pt" viewBox="0 0 1350.000000 213.000000"
 preserveAspectRatio="xMidYMid meet">
<metadata>
Created by potrace 1.10, written by Peter Selinger 2001-2011
</metadata>
<g transform="translate(0.000000,213.000000) scale(0.100000,-0.100000)"
fill="#000000" stroke="none">
<path d="M1675 1968 c-3 -7 -4 -404 -3 -883 l3 -870 109 -5 c59 -3 112 -3 116
0 5 3 10 163 13 355 4 364 6 386 51 473 24 46 98 113 147 133 29 12 72 18 127
18 69 1 91 -3 132 -24 27 -14 61 -41 77 -61 56 -75 57 -78 63 -499 l5 -390
109 -5 c87 -4 113 -2 124 9 12 12 13 80 9 435 -5 454 -4 448 -63 566 -25 49
-114 135 -160 155 -186 81 -428 45 -560 -82 -24 -24 -49 -41 -55 -38 -6 4 -9
131 -9 356 1 192 -1 353 -5 359 -9 15 -224 13 -230 -2z"/>
<path d="M5465 1969 c-98 -9 -149 -24 -240 -69 -70 -35 -176 -129 -195 -173
-6 -12 -14 -29 -19 -37 -62 -103 -63 -302 -3 -431 51 -108 186 -215 317 -250
48 -13 116 -30 175 -44 30 -7 78 -19 105 -25 28 -7 66 -16 85 -19 69 -14 152
-64 185 -109 28 -41 30 -50 30 -132 0 -82 -2 -91 -30 -132 -108 -153 -408
-186 -575 -63 -50 37 -90 99 -90 140 0 48 -21 56 -149 53 l-116 -3 -3 -32 c-3
-33 27 -143 50 -185 81 -144 210 -229 406 -268 112 -21 340 -6 427 30 101 41
161 80 215 137 96 103 130 190 130 338 0 114 -15 170 -69 254 -70 108 -182
172 -396 224 -33 8 -82 21 -110 27 -27 7 -71 16 -97 21 -26 4 -56 12 -67 18
-11 6 -27 11 -36 11 -9 0 -41 16 -70 36 -123 81 -139 258 -32 361 57 56 107
78 202 92 113 16 214 -4 291 -59 32 -23 84 -105 84 -133 0 -14 8 -34 18 -46
16 -20 25 -22 132 -19 l115 3 3 37 c3 38 -24 139 -53 196 -10 19 -43 62 -75
95 -119 128 -303 180 -545 156z"/>
<path d="M7774 1952 c-75 -42 -104 -84 -104 -150 0 -52 47 -117 103 -143 53
-23 58 -23 115 1 133 58 134 232 1 292 -50 22 -75 22 -115 0z"/>
<path d="M182 1828 l3 -113 250 -5 c138 -3 256 -9 263 -13 9 -6 12 -167 12
-748 0 -584 3 -739 13 -739 126 -5 221 0 228 12 5 7 9 342 9 744 0 658 2 732
16 738 9 3 123 6 254 6 282 0 262 -10 258 133 l-3 92 -653 3 -653 2 3 -112z"/>
<path d="M3435 1405 c-81 -17 -120 -33 -183 -73 -113 -73 -196 -186 -246 -337
-23 -70 -23 -319 0 -390 88 -273 290 -424 569 -425 117 0 273 34 307 68 7 7
16 12 21 12 17 0 99 70 131 112 63 83 104 181 85 204 -23 28 -229 14 -229 -15
0 -22 -56 -93 -93 -117 -47 -31 -156 -64 -212 -64 -43 0 -154 29 -195 51 -78
43 -150 160 -158 256 l-4 53 448 2 449 3 3 85 c4 108 -25 235 -69 310 -5 8
-14 26 -19 39 -21 48 -134 148 -205 181 -118 55 -271 72 -400 45z m238 -210
c98 -30 173 -110 198 -213 11 -46 11 -55 -1 -62 -8 -6 -153 -10 -323 -10 -346
0 -334 -3 -302 73 53 129 102 177 220 216 45 14 154 13 208 -4z"/>
<path d="M6795 1405 c-119 -26 -206 -74 -293 -165 -67 -69 -93 -115 -133 -232
-28 -84 -28 -343 1 -427 30 -90 41 -111 93 -182 107 -145 262 -219 462 -219
85 0 211 22 228 39 6 6 17 11 24 11 15 0 109 56 141 84 34 30 104 125 123 166
23 49 41 119 34 130 -3 6 -56 10 -119 10 -112 0 -136 -7 -136 -37 0 -37 -73
-114 -140 -148 -43 -22 -63 -25 -148 -25 -119 0 -168 18 -234 84 -74 76 -108
171 -108 305 0 132 38 232 116 308 67 64 121 84 230 84 86 1 97 -2 153 -31 45
-24 70 -46 95 -84 18 -28 35 -60 37 -71 4 -18 13 -20 123 -23 66 -1 123 1 128
6 24 24 -53 199 -115 263 -81 84 -196 141 -320 158 -97 14 -164 12 -242 -4z"/>
<path d="M8650 1405 c-84 -16 -123 -32 -188 -73 -57 -37 -148 -125 -163 -157
-5 -11 -18 -35 -29 -54 -54 -87 -65 -145 -65 -326 0 -143 3 -178 18 -215 43
-102 84 -172 131 -222 115 -120 252 -177 431 -178 277 -1 480 130 540 348 11
38 10 44 -6 52 -21 12 -179 13 -195 2 -6 -4 -23 -27 -39 -52 -47 -77 -83 -102
-184 -131 -84 -24 -129 -24 -215 1 -64 18 -117 49 -159 92 -35 36 -75 131 -79
188 l-3 55 445 5 c245 3 446 7 448 8 1 1 2 30 2 65 0 74 -23 218 -42 267 -95
250 -358 382 -648 325z m232 -209 c81 -25 139 -73 176 -145 26 -51 35 -116 18
-130 -9 -8 -102 -11 -317 -9 l-304 3 -3 30 c-5 38 48 143 91 182 33 29 81 55
132 72 45 14 154 13 207 -3z"/>
<path d="M10100 1406 c-80 -18 -164 -63 -216 -115 -50 -51 -58 -49 -68 23 -11
68 -13 69 -121 69 -72 0 -99 -3 -106 -14 -5 -8 -9 -266 -9 -576 0 -451 3 -564
13 -575 10 -10 40 -12 123 -8 l109 5 5 365 c6 391 7 402 61 485 54 83 139 125
255 125 107 0 193 -43 230 -114 38 -74 43 -130 44 -493 0 -277 3 -354 13 -365
10 -10 40 -12 123 -8 l109 5 3 395 c3 438 -1 473 -62 599 -34 69 -105 142
-165 168 -92 39 -237 52 -341 29z"/>
<path d="M11350 1405 c-84 -17 -123 -32 -190 -75 -148 -94 -238 -248 -260
-445 -23 -213 36 -420 154 -539 47 -47 147 -116 168 -116 8 0 19 -5 25 -11 34
-34 258 -50 373 -25 78 16 105 28 188 79 108 68 206 206 214 303 l3 39 -117 3
-117 3 -26 -50 c-32 -65 -83 -115 -141 -140 -65 -29 -222 -30 -286 -1 -138 61
-218 245 -190 442 13 92 27 131 75 195 39 54 68 76 131 105 56 26 208 25 268
-2 56 -25 118 -86 143 -144 l20 -46 117 0 c64 0 119 3 122 8 2 4 0 25 -4 47
-41 195 -203 338 -420 372 -103 15 -164 15 -250 -2z"/>
<path d="M12640 1405 c-74 -15 -135 -36 -152 -53 -7 -7 -17 -12 -24 -12 -16 0
-160 -135 -176 -165 -86 -160 -93 -188 -93 -375 0 -145 3 -172 22 -227 29 -80
68 -149 112 -198 39 -45 124 -115 138 -115 5 0 14 -5 21 -12 33 -33 177 -67
287 -68 277 -1 481 131 540 348 16 56 5 62 -113 62 l-90 0 -25 -42 c-30 -51
-73 -98 -106 -117 -39 -21 -152 -51 -196 -51 -91 0 -202 47 -268 113 -35 35
-75 130 -79 187 l-3 55 442 5 c243 3 445 8 448 12 19 18 -9 256 -37 328 -30
77 -64 128 -123 186 -126 127 -324 179 -525 139z m232 -209 c81 -25 139 -73
176 -145 26 -51 35 -116 18 -130 -9 -8 -102 -11 -317 -9 l-304 3 -3 32 c-2 21
8 52 31 95 39 72 106 130 177 152 60 18 164 19 222 2z"/>
<path d="M7729 1378 c-19 -7 -19 -21 -17 -585 l3 -578 110 -3 c95 -2 111 0
122 15 10 13 13 141 13 574 0 479 -2 558 -15 569 -16 13 -184 20 -216 8z"/>
</g>
</svg>
