<svg width="528.802" height="74.115" viewBox="0 0 528.802 74.115" xmlns="http://www.w3.org/2000/svg"><g id="svgGroup" stroke-linecap="round" fill-rule="evenodd" font-size="9pt" stroke="#000" stroke-width="1.mm" fill="#000" style="stroke:#000;stroke-width:1.mm;fill:#000"><path d="M 210.7 38.802 L 222.8 41.802 A 21.552 21.552 0 0 1 227.477 43.427 C 231.968 45.655 234.1 49.277 234.1 54.202 C 234.1 62.402 227.4 67.502 216.9 67.502 A 23.97 23.97 0 0 1 209.826 66.508 C 207.246 65.71 205.093 64.453 203.473 62.818 A 11.607 11.607 0 0 1 200.1 55.102 L 192.7 55.102 C 193.583 66.575 202.639 73.817 216.097 74.094 A 39.111 39.111 0 0 0 216.9 74.102 A 33.312 33.312 0 0 0 227.373 72.54 C 231.771 71.082 235.283 68.647 237.681 65.411 A 19.133 19.133 0 0 0 241.3 53.802 A 18.347 18.347 0 0 0 239.119 44.727 C 236.511 40.049 231.581 36.783 224.435 35.035 A 40.746 40.746 0 0 0 224.3 35.002 L 212 32.002 A 22.475 22.475 0 0 1 207.285 30.283 C 203.124 28.156 200.979 24.881 200.811 20.383 A 15.552 15.552 0 0 1 200.8 19.802 A 12.222 12.222 0 0 1 208.537 8.213 C 210.492 7.346 212.768 6.789 215.307 6.587 A 27.674 27.674 0 0 1 217.5 6.502 A 20.315 20.315 0 0 1 223.722 7.394 C 228.426 8.906 231.469 12.302 232.506 17.264 A 18.246 18.246 0 0 1 232.8 19.202 L 240.1 19.202 C 239.212 9.514 233.501 2.955 224.546 0.787 A 29.508 29.508 0 0 0 217.6 0.002 A 32.012 32.012 0 0 0 207.096 1.649 C 198.722 4.558 193.6 11.136 193.6 19.902 A 18.471 18.471 0 0 0 195.738 28.921 C 197.344 31.848 199.844 34.225 203.2 36.033 A 31.222 31.222 0 0 0 210.7 38.802 Z M 66.6 72.802 L 66.6 46.502 C 66.6 37.202 72 29.502 82.4 29.502 C 89.9 29.502 95.2 33.502 95.2 44.802 L 95.2 72.902 L 102.1 72.902 L 102.1 43.302 C 102.1 32.887 97.946 25.606 88.829 23.698 A 25.04 25.04 0 0 0 83.7 23.202 A 21.521 21.521 0 0 0 76.458 24.391 A 17.796 17.796 0 0 0 66.6 32.902 L 66.6 0.002 L 59.7 0.002 L 59.7 72.802 L 66.6 72.802 Z M 385.7 72.902 L 385.7 47.602 A 24.908 24.908 0 0 1 386.861 39.765 C 388.978 33.385 393.93 29.502 401.2 29.502 C 408.271 29.502 413.076 32.627 414.097 41.155 A 30.742 30.742 0 0 1 414.3 44.802 L 414.3 72.902 L 421.2 72.902 L 421.2 43.302 A 28.845 28.845 0 0 0 419.993 34.558 C 418.241 29.07 414.518 25.278 408.401 23.842 A 26.251 26.251 0 0 0 402.4 23.202 C 395.4 23.202 389 26.702 385.8 32.902 L 384.8 24.502 L 378.8 24.502 L 378.8 72.902 L 385.7 72.902 Z M 294.2 57.702 L 287.2 57.702 A 14.422 14.422 0 0 1 275.72 67.587 A 18.369 18.369 0 0 1 272.3 67.902 A 15.062 15.062 0 0 1 261.938 64.084 C 258.239 60.729 256.1 55.35 256.1 48.702 C 256.1 40.873 259.087 34.949 263.921 31.811 A 16.108 16.108 0 0 1 272.8 29.302 A 15.32 15.32 0 0 1 282.589 32.598 C 284.704 34.33 286.298 36.718 287.1 39.702 L 294 39.702 C 292.1 29.702 283.9 23.202 272.7 23.202 A 23.363 23.363 0 0 0 259.924 26.738 C 255.25 29.736 251.907 34.502 250.327 40.502 A 32.572 32.572 0 0 0 249.3 48.802 A 30.397 30.397 0 0 0 251.484 60.515 A 21.589 21.589 0 0 0 272.3 74.102 A 24.182 24.182 0 0 0 283.959 71.257 A 20.503 20.503 0 0 0 294.2 57.702 Z M 476.5 57.702 L 469.5 57.702 A 14.422 14.422 0 0 1 458.02 67.587 A 18.369 18.369 0 0 1 454.6 67.902 A 15.062 15.062 0 0 1 444.238 64.084 C 440.539 60.729 438.4 55.35 438.4 48.702 C 438.4 40.873 441.387 34.949 446.221 31.811 A 16.108 16.108 0 0 1 455.1 29.302 A 15.32 15.32 0 0 1 464.889 32.598 C 467.004 34.33 468.598 36.718 469.4 39.702 L 476.3 39.702 C 474.4 29.702 466.2 23.202 455 23.202 A 23.363 23.363 0 0 0 442.224 26.738 C 437.55 29.736 434.207 34.502 432.627 40.502 A 32.572 32.572 0 0 0 431.6 48.802 A 30.397 30.397 0 0 0 433.784 60.515 A 21.589 21.589 0 0 0 454.6 74.102 A 24.182 24.182 0 0 0 466.259 71.257 A 20.503 20.503 0 0 0 476.5 57.702 Z M 0 7.902 L 22 7.902 L 22 72.902 L 29.2 72.902 L 29.2 7.902 L 51.3 7.902 L 51.3 1.302 L 0 1.302 L 0 7.902 Z M 157.7 58.402 L 151.1 58.402 C 149.3 64.802 144.2 68.202 136.3 68.202 A 18.111 18.111 0 0 1 128.37 66.541 C 122.792 63.853 119.555 57.991 119.2 49.602 L 157.7 49.602 L 157.7 46.202 C 157.7 33.321 149.832 24.329 138.002 23.301 A 26.576 26.576 0 0 0 135.7 23.202 A 22.678 22.678 0 0 0 122.066 27.454 C 117.904 30.513 114.905 35.085 113.464 40.72 A 32.196 32.196 0 0 0 112.5 48.702 C 112.5 63.379 121.358 73.395 134.752 74.066 A 28.921 28.921 0 0 0 136.2 74.102 A 27.463 27.463 0 0 0 144.871 72.815 C 151.098 70.747 155.379 66.224 157.396 59.5 A 27.239 27.239 0 0 0 157.7 58.402 Z M 367.8 58.402 L 361.2 58.402 C 359.4 64.802 354.3 68.202 346.4 68.202 A 18.111 18.111 0 0 1 338.47 66.541 C 332.892 63.853 329.655 57.991 329.3 49.602 L 367.8 49.602 L 367.8 46.202 C 367.8 33.321 359.932 24.329 348.102 23.301 A 26.576 26.576 0 0 0 345.8 23.202 A 22.678 22.678 0 0 0 332.166 27.454 C 328.004 30.513 325.005 35.085 323.564 40.72 A 32.196 32.196 0 0 0 322.6 48.702 C 322.6 63.379 331.458 73.395 344.852 74.066 A 28.921 28.921 0 0 0 346.3 74.102 A 27.463 27.463 0 0 0 354.971 72.815 C 361.198 70.747 365.479 66.224 367.496 59.5 A 27.239 27.239 0 0 0 367.8 58.402 Z M 528.8 58.402 L 522.2 58.402 C 520.4 64.802 515.3 68.202 507.4 68.202 A 18.111 18.111 0 0 1 499.47 66.541 C 493.892 63.853 490.655 57.991 490.3 49.602 L 528.8 49.602 L 528.8 46.202 C 528.8 33.321 520.932 24.329 509.102 23.301 A 26.576 26.576 0 0 0 506.8 23.202 A 22.678 22.678 0 0 0 493.166 27.454 C 489.004 30.513 486.005 35.085 484.564 40.72 A 32.196 32.196 0 0 0 483.6 48.702 C 483.6 63.379 492.458 73.395 505.852 74.066 A 28.921 28.921 0 0 0 507.3 74.102 A 27.463 27.463 0 0 0 515.971 72.815 C 522.198 70.747 526.479 66.224 528.496 59.5 A 27.239 27.239 0 0 0 528.8 58.402 Z M 304.7 72.902 L 311.6 72.902 L 311.6 24.502 L 304.7 24.502 L 304.7 72.902 Z M 150.8 44.602 L 119.4 44.602 A 21.09 21.09 0 0 1 121.786 36.964 C 124.544 32.003 129.373 29.102 135.7 29.102 C 144.8 29.102 150.8 35.302 150.8 44.602 Z M 360.9 44.602 L 329.5 44.602 A 21.09 21.09 0 0 1 331.886 36.964 C 334.644 32.003 339.473 29.102 345.8 29.102 C 354.9 29.102 360.9 35.302 360.9 44.602 Z M 521.9 44.602 L 490.5 44.602 A 21.09 21.09 0 0 1 492.886 36.964 C 495.644 32.003 500.473 29.102 506.8 29.102 C 515.9 29.102 521.9 35.302 521.9 44.602 Z M 308.1 11.202 C 310.9 11.202 313.3 8.902 313.3 6.102 C 313.3 3.302 310.9 0.902 308.1 0.902 C 305.3 0.902 303 3.302 303 6.102 C 303 8.902 305.3 11.202 308.1 11.202 Z" vector-effect="non-scaling-stroke"/></g></svg>